<svg id="svg" version="1.1" xmlns="http://www.w3.org/2000/svg" xmlns:xlink="http://www.w3.org/1999/xlink" width="400" height="115" viewBox="0, 0, 400,115"><g id="svgg"><path id="path0" d="M129.040 29.027 C 128.679 29.388,128.745 60.555,129.108 60.917 C 129.511 61.321,139.093 61.224,140.019 60.807 C 140.864 60.427,141.000 59.901,141.117 56.559 L 141.217 53.702 142.650 53.589 C 145.223 53.387,145.677 53.139,145.921 51.801 L 146.034 51.185 149.511 51.134 C 153.534 51.075,153.507 51.085,153.630 49.610 L 153.705 48.704 154.688 48.633 C 155.229 48.594,155.764 48.469,155.877 48.356 C 156.102 48.132,156.273 32.820,156.056 32.333 C 155.995 32.196,155.939 32.011,155.931 31.922 C 155.908 31.665,155.134 31.338,154.542 31.336 C 154.020 31.333,154.000 31.358,154.000 32.000 C 154.000 32.367,153.942 32.667,153.870 32.667 C 153.799 32.667,153.757 32.367,153.778 32.000 C 153.798 31.633,153.744 31.333,153.658 31.333 C 153.571 31.333,153.500 31.157,153.500 30.942 C 153.500 30.120,153.136 29.471,152.519 29.190 C 151.722 28.828,129.394 28.673,129.040 29.027 M156.593 29.098 C 156.231 29.459,156.271 60.504,156.633 60.867 C 156.803 61.036,158.126 61.083,162.717 61.083 L 168.583 61.083 168.614 60.083 C 168.631 59.533,168.664 57.283,168.688 55.083 C 168.711 52.883,168.758 51.568,168.791 52.160 C 168.869 53.559,168.975 53.667,170.270 53.667 L 171.333 53.667 171.350 54.375 C 171.360 54.765,171.354 55.327,171.337 55.625 L 171.308 56.167 172.571 56.167 L 173.833 56.167 173.833 58.467 C 173.833 60.033,173.897 60.830,174.033 60.967 C 174.181 61.115,175.781 61.167,180.200 61.167 L 186.167 61.167 186.166 58.292 C 186.164 54.224,185.988 53.838,184.125 53.834 L 183.667 53.833 183.667 52.583 L 183.667 51.333 182.417 51.333 L 181.167 51.333 181.167 50.000 L 181.167 48.667 182.417 48.667 L 183.667 48.667 183.667 47.417 L 183.667 46.167 184.730 46.167 C 186.263 46.167,186.177 46.557,186.127 39.814 L 186.083 33.917 184.875 33.868 L 183.667 33.819 183.667 32.576 L 183.667 31.333 182.417 31.333 L 181.167 31.333 181.167 30.083 L 181.167 28.833 169.012 28.833 C 158.136 28.833,156.829 28.861,156.593 29.098 M188.833 45.000 L 188.833 61.167 193.750 61.167 L 198.667 61.167 198.667 45.000 L 198.667 28.833 193.750 28.833 L 188.833 28.833 188.833 45.000 M203.833 45.008 L 203.833 61.182 208.411 61.133 C 212.543 61.088,213.018 61.054,213.286 60.786 C 213.560 60.512,213.590 59.913,213.662 53.286 C 213.716 48.387,213.770 46.883,213.829 48.583 L 213.917 51.083 215.125 51.132 L 216.333 51.181 216.333 52.434 L 216.333 53.686 219.661 53.635 C 223.840 53.570,223.564 53.765,223.638 50.828 L 223.693 48.667 224.926 48.667 L 226.158 48.667 226.209 46.125 C 226.237 44.727,226.276 47.540,226.296 52.375 L 226.333 61.167 231.250 61.167 L 236.167 61.167 236.167 45.000 L 236.167 28.833 230.000 28.833 L 223.833 28.833 223.833 31.333 L 223.833 33.833 222.583 33.833 L 221.333 33.833 221.333 35.083 L 221.333 36.333 220.090 36.333 L 218.847 36.333 218.791 37.625 C 218.752 38.491,218.723 38.189,218.700 36.708 C 218.660 34.031,218.549 33.833,217.091 33.833 L 216.181 33.833 216.132 32.625 L 216.083 31.417 214.875 31.368 L 213.667 31.319 213.667 30.076 L 213.667 28.833 208.750 28.833 L 203.833 28.833 203.833 45.008 M238.910 29.042 C 238.866 29.156,238.850 36.412,238.874 45.167 L 238.917 61.083 252.544 61.126 L 266.172 61.169 266.128 56.293 L 266.083 51.417 257.375 51.374 L 248.667 51.330 248.667 49.999 L 248.667 48.667 256.167 48.667 L 263.667 48.667 263.667 44.083 C 263.667 39.722,263.651 39.484,263.333 39.167 C 263.011 38.845,262.752 38.832,255.792 38.796 L 248.583 38.759 257.036 38.671 C 264.856 38.590,265.511 38.561,265.786 38.286 C 266.161 37.912,266.347 29.501,265.990 29.071 C 265.715 28.740,239.036 28.711,238.910 29.042 M266.372 33.708 L 266.417 38.583 271.375 38.627 L 276.333 38.672 276.333 49.919 L 276.333 61.167 281.050 61.167 C 284.496 61.167,285.821 61.113,285.967 60.967 C 286.118 60.815,286.167 58.089,286.167 49.717 L 286.167 38.667 289.917 38.667 L 293.667 38.667 293.667 33.750 L 293.667 28.833 279.997 28.833 L 266.328 28.833 266.372 33.708 M299.038 29.028 C 298.889 29.178,298.833 30.197,298.833 32.783 L 298.833 36.333 297.583 36.333 L 296.333 36.333 296.333 38.826 L 296.333 41.319 295.125 41.368 L 293.917 41.417 293.871 43.875 L 293.824 46.333 292.779 46.333 C 291.284 46.333,291.333 46.200,291.333 50.283 L 291.333 53.833 290.458 53.852 C 289.977 53.862,289.419 53.857,289.219 53.841 C 288.855 53.812,288.855 53.815,288.840 57.493 L 288.825 61.174 293.755 61.162 C 298.286 61.150,298.682 61.126,298.656 60.866 C 298.511 59.402,298.667 58.667,299.125 58.666 C 300.990 58.662,301.151 58.306,301.199 54.083 C 301.218 52.433,301.259 51.665,301.291 52.375 L 301.347 53.667 305.070 53.667 L 308.793 53.667 308.866 54.669 C 308.956 55.915,309.085 56.044,310.331 56.134 L 311.333 56.207 311.333 58.487 C 311.333 60.038,311.397 60.831,311.533 60.967 C 311.681 61.115,313.282 61.167,317.705 61.167 L 323.676 61.167 323.630 58.792 L 323.583 56.417 322.375 56.368 L 321.167 56.319 321.167 53.836 C 321.167 52.360,321.099 51.311,321.000 51.250 C 320.908 51.193,320.833 50.998,320.833 50.815 C 320.833 49.968,320.139 49.300,319.083 49.132 C 318.771 49.083,318.745 48.918,318.667 46.498 L 318.583 43.917 317.375 43.868 L 316.167 43.819 316.167 41.326 L 316.167 38.833 314.917 38.833 L 313.667 38.833 313.659 36.125 C 313.648 31.963,313.532 31.636,311.997 31.432 L 311.167 31.322 311.148 30.453 C 311.138 29.975,311.143 29.420,311.159 29.220 L 311.188 28.856 305.215 28.840 C 300.695 28.827,299.193 28.873,299.038 29.028 M323.837 44.996 L 323.845 61.158 335.006 61.164 L 346.167 61.171 346.167 59.877 L 346.166 58.583 347.042 58.615 C 347.523 58.632,348.114 58.651,348.355 58.657 C 348.770 58.666,348.797 58.719,348.866 59.669 C 348.976 61.197,348.144 61.078,359.008 61.129 L 368.667 61.175 368.667 59.921 L 368.667 58.667 369.917 58.667 L 371.167 58.667 371.167 57.437 L 371.167 56.207 372.169 56.134 C 373.655 56.027,373.583 56.284,373.583 51.033 L 373.583 46.417 373.167 46.391 C 372.938 46.378,372.400 46.359,371.972 46.350 L 371.193 46.333 371.138 44.172 C 371.063 41.230,371.352 41.430,367.085 41.366 L 363.681 41.314 363.632 40.116 L 363.583 38.917 361.125 38.871 C 358.794 38.827,358.667 38.807,358.667 38.491 C 358.667 38.282,358.836 38.094,359.125 37.984 C 359.761 37.742,360.173 37.343,360.442 36.708 C 360.867 35.705,361.333 35.971,361.333 37.217 C 361.333 38.743,361.065 38.667,366.453 38.667 L 371.172 38.667 371.128 33.792 L 371.083 28.917 361.208 28.874 L 351.333 28.831 351.333 30.082 L 351.333 31.333 350.082 31.333 L 348.830 31.333 348.873 38.708 L 348.917 46.083 350.125 46.132 C 351.292 46.180,351.333 46.196,351.333 46.600 C 351.333 46.837,351.406 46.975,351.500 46.917 C 351.592 46.860,351.667 46.893,351.667 46.990 C 351.667 47.087,351.592 47.167,351.500 47.167 C 351.265 47.167,351.292 48.225,351.533 48.467 C 351.803 48.736,352.999 48.730,353.003 48.458 C 353.004 48.303,353.041 48.306,353.146 48.473 C 353.224 48.595,353.429 48.680,353.602 48.662 C 353.775 48.643,355.023 48.637,356.375 48.647 L 358.833 48.667 358.833 49.717 C 358.833 51.166,358.835 51.167,361.561 51.167 C 362.841 51.167,363.851 51.205,363.804 51.252 C 363.730 51.325,359.453 51.369,355.042 51.342 L 353.667 51.333 353.667 50.083 L 353.667 48.833 351.250 48.833 L 348.833 48.833 348.807 51.458 C 348.788 53.333,348.753 53.758,348.682 52.945 C 348.532 51.220,349.089 51.333,340.801 51.333 L 333.667 51.333 333.667 40.083 L 333.667 28.833 328.747 28.833 L 323.828 28.833 323.837 44.996 M154.958 31.958 C 154.991 32.056,154.926 32.193,154.814 32.262 C 154.669 32.352,154.642 32.296,154.722 32.069 C 154.831 31.760,154.827 31.760,154.584 32.074 C 154.338 32.391,154.333 32.391,154.333 32.047 C 154.333 31.681,154.842 31.608,154.958 31.958 M154.736 33.206 C 154.857 33.288,154.859 33.329,154.742 33.331 C 154.482 33.335,154.166 32.970,154.172 32.675 C 154.175 32.483,154.226 32.503,154.366 32.750 C 154.470 32.933,154.636 33.138,154.736 33.206 M155.599 32.769 C 155.523 32.968,155.567 33.010,155.772 32.931 C 156.002 32.843,156.013 32.867,155.836 33.080 C 155.495 33.491,155.212 33.065,155.479 32.542 C 155.573 32.358,155.680 32.559,155.599 32.769 M146.333 40.000 L 146.333 41.333 145.083 41.333 L 143.833 41.333 143.833 42.583 L 143.833 43.833 142.500 43.833 L 141.167 43.833 141.167 41.250 L 141.167 38.667 143.750 38.667 L 146.333 38.667 146.333 40.000 M173.833 40.000 L 173.833 41.333 171.250 41.333 L 168.667 41.333 168.667 40.000 L 168.667 38.667 171.250 38.667 L 173.833 38.667 173.833 40.000 M306.333 45.000 L 306.333 46.333 304.958 46.301 C 303.634 46.270,303.623 46.267,304.660 46.209 C 306.059 46.131,306.167 46.025,306.167 44.730 C 306.167 44.145,306.204 43.667,306.250 43.667 C 306.296 43.667,306.333 44.267,306.333 45.000 M129.033 66.533 C 128.757 66.810,128.757 70.690,129.033 70.967 C 129.189 71.122,156.616 71.167,251.455 71.167 L 373.676 71.167 373.630 68.792 L 373.583 66.417 251.408 66.375 C 156.521 66.342,129.189 66.378,129.033 66.533 M131.167 73.941 C 129.139 74.247,128.975 74.546,128.868 78.125 C 128.772 81.377,128.589 81.167,131.517 81.167 L 133.827 81.167 133.872 84.875 L 133.917 88.583 136.292 88.630 L 138.667 88.676 138.667 84.921 L 138.667 81.167 139.917 81.167 L 141.167 81.167 141.167 77.833 C 141.167 73.398,141.719 73.827,136.042 73.856 C 133.590 73.869,131.396 73.907,131.167 73.941 M151.669 74.164 C 151.290 74.544,151.139 88.667,151.515 88.667 C 151.609 88.667,151.648 88.604,151.601 88.528 C 151.553 88.451,151.621 88.389,151.750 88.389 C 151.879 88.389,151.947 88.451,151.899 88.528 C 151.852 88.604,153.918 88.667,156.490 88.667 L 161.167 88.667 161.167 86.250 L 161.167 83.833 158.625 83.798 L 156.083 83.764 158.583 83.673 L 161.083 83.583 161.128 79.044 C 161.170 74.684,161.159 74.492,160.836 74.169 C 160.320 73.653,152.185 73.648,151.669 74.164 M174.449 73.950 C 174.063 74.050,173.833 74.660,173.833 75.587 L 173.833 76.319 172.625 76.368 L 171.417 76.417 171.373 82.206 C 171.330 87.816,171.339 88.006,171.665 88.331 C 171.988 88.655,172.210 88.667,177.833 88.667 L 183.667 88.667 183.667 85.262 C 183.667 81.055,183.842 81.333,181.188 81.333 C 179.114 81.333,178.833 81.427,178.833 82.117 C 178.833 82.485,178.780 82.500,177.500 82.500 L 176.167 82.500 176.167 81.833 L 176.167 81.167 179.917 81.167 L 183.667 81.167 183.667 78.750 L 183.667 76.333 182.417 76.333 L 181.167 76.333 181.167 75.283 C 181.167 74.689,181.080 74.147,180.967 74.033 C 180.770 73.837,175.163 73.765,174.449 73.950 M194.292 73.948 C 194.131 73.990,193.952 74.215,193.894 74.447 C 193.790 74.861,192.458 76.333,192.188 76.333 C 191.485 76.333,191.417 76.843,191.417 82.059 C 191.417 89.044,191.104 88.553,195.617 88.643 L 198.667 88.703 198.689 86.143 C 198.716 83.156,198.816 83.303,198.875 86.417 L 198.917 88.583 201.042 88.630 C 202.680 88.666,203.167 88.628,203.169 88.463 C 203.171 88.299,203.201 88.297,203.301 88.453 C 203.487 88.746,205.168 88.278,205.533 87.832 C 205.966 87.301,206.025 86.451,205.969 81.545 L 205.917 77.008 204.810 75.944 C 204.202 75.359,203.654 74.723,203.593 74.529 C 203.393 73.902,201.242 73.606,199.796 74.007 C 198.996 74.230,198.828 74.803,198.879 77.128 C 198.900 78.066,198.860 78.834,198.792 78.834 C 198.723 78.833,198.667 77.858,198.667 76.667 C 198.667 73.823,198.669 73.826,196.292 73.853 C 195.352 73.863,194.452 73.906,194.292 73.948 M221.891 73.999 C 221.476 74.167,221.296 74.801,221.336 75.955 C 221.408 78.067,221.291 78.992,221.163 77.314 C 220.941 74.406,220.598 74.000,218.361 74.000 C 214.056 74.000,213.805 74.477,213.871 82.534 C 213.906 86.867,213.966 88.200,214.133 88.367 C 214.296 88.530,215.178 88.583,217.716 88.583 L 221.083 88.583 221.178 87.333 L 221.273 86.083 221.303 87.385 L 221.333 88.686 224.742 88.635 C 227.258 88.597,228.207 88.527,228.367 88.367 C 228.788 87.945,228.763 77.046,228.340 76.473 C 228.153 76.220,228.000 75.946,228.000 75.863 C 228.000 75.564,227.267 74.788,226.764 74.553 C 226.481 74.421,226.063 74.206,225.833 74.076 C 225.365 73.809,222.501 73.753,221.891 73.999 M241.533 74.033 C 241.420 74.147,241.333 74.689,241.333 75.283 L 241.333 76.333 240.083 76.333 L 238.833 76.333 238.833 77.576 L 238.833 78.819 237.625 78.868 L 236.417 78.917 236.417 82.500 L 236.417 86.083 237.625 86.132 L 238.833 86.181 238.833 87.424 L 238.833 88.667 243.750 88.667 L 248.667 88.667 248.667 87.417 L 248.667 86.167 249.917 86.167 L 251.167 86.167 251.167 81.450 C 251.167 76.065,251.243 76.333,249.717 76.333 C 248.683 76.333,248.667 76.326,248.666 75.875 C 248.664 74.787,248.355 74.188,247.702 74.007 C 246.806 73.758,241.787 73.780,241.533 74.033 M261.664 74.170 C 261.281 74.552,261.137 88.667,261.516 88.667 C 261.610 88.667,261.648 88.604,261.601 88.528 C 261.553 88.451,261.621 88.389,261.750 88.389 C 261.879 88.389,261.947 88.451,261.899 88.528 C 261.852 88.604,263.912 88.667,266.476 88.667 C 269.041 88.667,271.164 88.607,271.194 88.535 C 271.225 88.462,271.542 88.293,271.899 88.159 C 273.730 87.474,273.730 85.026,271.899 84.341 C 271.542 84.207,271.225 84.038,271.194 83.965 C 271.164 83.893,270.020 83.833,268.653 83.833 L 266.167 83.833 266.167 79.167 C 266.167 73.449,266.341 73.833,263.750 73.833 C 262.217 73.833,261.958 73.875,261.664 74.170 M284.042 74.024 C 283.919 74.147,283.833 74.666,283.833 75.283 L 283.833 76.333 282.581 76.333 L 281.329 76.333 281.373 82.458 L 281.417 88.583 287.203 88.583 C 292.534 88.583,293.012 88.560,293.286 88.286 C 293.560 88.012,293.583 87.533,293.583 82.203 L 293.583 76.417 292.583 76.386 C 292.033 76.369,291.499 76.350,291.396 76.344 C 291.290 76.338,291.174 75.928,291.131 75.408 C 291.009 73.930,290.997 73.925,287.369 73.866 C 285.032 73.828,284.198 73.867,284.042 74.024 M306.667 74.167 C 306.414 74.419,306.333 74.722,306.333 75.417 L 306.333 76.333 305.087 76.333 L 303.840 76.333 303.842 82.281 C 303.843 86.123,303.905 88.302,304.016 88.436 C 304.147 88.594,305.620 88.647,310.177 88.659 L 316.167 88.674 316.167 82.491 L 316.167 76.308 315.542 76.337 C 315.198 76.353,314.635 76.358,314.292 76.349 L 313.667 76.333 313.667 75.283 C 313.667 73.797,313.755 73.833,310.133 73.833 C 307.222 73.833,306.976 73.857,306.667 74.167 M326.667 74.167 C 326.344 74.490,326.333 74.722,326.333 81.583 L 326.333 88.667 328.750 88.667 L 331.167 88.667 331.167 81.583 C 331.167 73.078,331.402 73.833,328.750 73.833 C 327.222 73.833,326.958 73.876,326.667 74.167 M341.681 74.152 C 341.339 74.494,341.333 74.623,341.333 81.585 L 341.333 88.671 347.458 88.627 L 353.583 88.583 353.630 86.440 C 353.690 83.679,353.854 83.839,350.938 83.810 L 348.583 83.786 350.265 83.656 C 353.475 83.409,353.583 83.249,353.583 78.750 C 353.583 73.713,353.907 73.952,346.973 73.866 C 342.141 73.805,342.022 73.812,341.681 74.152 M364.167 74.167 C 363.915 74.419,363.833 74.722,363.833 75.409 L 363.833 76.319 362.625 76.368 L 361.417 76.417 361.417 82.500 L 361.417 88.583 367.121 88.583 L 372.824 88.583 373.204 88.204 C 373.568 87.839,373.586 87.696,373.641 84.565 L 373.698 81.306 372.432 81.361 C 371.736 81.392,371.166 81.364,371.166 81.299 C 371.166 81.234,371.710 81.159,372.375 81.132 L 373.583 81.083 373.630 78.940 C 373.686 76.362,373.671 76.333,372.230 76.333 L 371.167 76.333 371.167 75.417 C 371.167 73.874,371.073 73.833,367.500 73.833 C 364.722 73.833,364.475 73.858,364.167 74.167 M245.305 81.318 C 243.939 81.439,243.939 81.439,243.818 82.805 L 243.719 83.917 243.693 82.542 L 243.667 81.167 245.042 81.193 L 246.417 81.219 245.305 81.318 M288.833 81.504 C 288.833 81.719,288.667 81.905,288.375 82.016 C 287.739 82.258,287.327 82.657,287.058 83.292 C 286.589 84.401,286.167 84.026,286.167 82.500 L 286.167 81.167 287.500 81.167 C 288.728 81.167,288.833 81.193,288.833 81.504 M310.167 83.678 L 311.417 83.773 310.042 83.803 L 308.667 83.833 308.697 82.458 L 308.727 81.083 308.822 82.333 L 308.917 83.583 310.167 83.678 " stroke="none" fill="#fcfcfc" fill-rule="evenodd"></path><path id="path1" d="M58.667 14.000 C 58.529 14.081,58.209 14.191,57.954 14.244 C 57.365 14.368,56.870 14.862,56.740 15.454 C 56.684 15.709,56.610 16.010,56.575 16.125 C 56.527 16.279,55.900 16.333,54.184 16.333 C 51.404 16.333,51.333 16.371,51.333 17.832 L 51.333 18.808 49.091 18.862 C 46.491 18.925,46.467 18.938,46.366 20.324 L 46.294 21.320 45.105 21.368 L 43.917 21.417 43.868 22.625 L 43.819 23.833 42.576 23.833 L 41.333 23.833 41.333 25.076 L 41.333 26.319 40.125 26.368 L 38.917 26.417 38.868 27.618 L 38.819 28.819 37.618 28.868 L 36.417 28.917 36.368 30.195 L 36.320 31.473 35.660 31.584 C 34.386 31.800,33.839 32.886,33.835 35.208 L 33.833 36.333 32.783 36.333 C 31.284 36.333,31.333 36.199,31.333 40.276 L 31.333 43.819 30.125 43.868 L 28.917 43.917 28.874 57.207 C 28.825 72.495,28.678 71.167,30.417 71.167 L 31.333 71.167 31.333 73.667 L 31.333 76.167 32.579 76.167 L 33.824 76.167 33.871 78.625 L 33.917 81.083 35.125 81.132 L 36.333 81.181 36.337 82.716 C 36.344 85.426,36.574 85.887,38.013 86.085 L 38.833 86.198 38.833 87.232 C 38.833 88.528,38.973 88.667,40.283 88.667 L 41.333 88.667 41.333 89.717 C 41.333 91.046,41.461 91.167,42.872 91.167 C 43.637 91.167,44.031 91.235,44.075 91.375 C 44.110 91.490,44.184 91.791,44.240 92.046 C 44.370 92.638,44.865 93.132,45.454 93.256 C 45.709 93.310,46.047 93.424,46.206 93.510 C 46.365 93.596,47.018 93.667,47.657 93.667 L 48.819 93.667 48.868 94.875 L 48.917 96.083 51.292 96.130 L 53.667 96.176 53.667 94.921 L 53.667 93.667 54.917 93.667 L 56.167 93.667 56.167 91.174 L 56.167 88.681 57.375 88.632 L 58.583 88.583 58.583 83.750 L 58.583 78.917 57.375 78.868 L 56.167 78.819 56.167 77.838 C 56.167 76.551,55.948 76.333,54.655 76.333 L 53.667 76.333 53.667 75.345 C 53.667 74.052,53.449 73.833,52.162 73.833 L 51.181 73.833 51.132 72.625 L 51.083 71.417 49.879 71.368 L 48.675 71.319 48.629 68.868 L 48.583 66.417 47.375 66.368 L 46.167 66.319 46.167 56.243 L 46.167 46.167 47.417 46.167 L 48.667 46.167 48.667 44.937 L 48.667 43.708 49.592 43.631 C 51.000 43.514,51.073 43.382,51.138 40.828 L 51.193 38.667 52.430 38.667 L 53.667 38.667 53.667 37.437 L 53.667 36.207 55.741 36.138 C 58.215 36.055,58.421 35.942,58.592 34.573 L 58.703 33.681 59.893 33.632 L 61.083 33.583 61.132 32.389 L 61.181 31.195 65.556 31.139 C 70.869 31.071,70.771 31.104,71.076 29.292 L 71.182 28.667 73.758 28.667 L 76.333 28.667 76.334 29.125 C 76.338 31.023,76.681 31.165,81.250 31.165 C 86.203 31.165,86.164 31.191,86.166 27.895 L 86.167 26.207 87.169 26.134 C 88.558 26.034,88.570 26.011,88.667 23.369 L 88.750 21.087 89.533 20.975 C 90.496 20.838,90.643 20.751,90.856 20.192 C 91.221 19.232,90.951 16.500,90.490 16.500 C 90.098 16.500,88.667 14.800,88.667 14.334 L 88.667 13.833 73.792 13.843 C 65.527 13.849,58.806 13.918,58.667 14.000 M91.444 18.944 C 91.383 19.006,91.333 20.131,91.333 21.444 L 91.333 23.833 90.417 23.833 C 88.772 23.833,88.833 23.594,88.833 30.000 C 88.833 36.395,88.775 36.167,90.395 36.167 L 91.290 36.167 91.406 37.041 C 91.556 38.172,91.833 38.455,92.920 38.591 L 93.807 38.702 93.922 39.536 C 94.066 40.589,94.413 40.934,95.475 41.080 L 96.319 41.196 96.368 42.390 L 96.417 43.583 97.621 43.632 L 98.825 43.681 98.871 46.132 L 98.917 48.583 100.125 48.632 L 101.333 48.681 101.333 56.319 L 101.333 63.957 100.565 64.043 C 99.119 64.206,98.836 65.024,98.834 69.042 L 98.833 71.333 97.583 71.333 L 96.333 71.333 96.333 72.576 L 96.333 73.819 95.125 73.868 L 93.917 73.917 93.868 75.118 L 93.819 76.319 92.618 76.368 L 91.417 76.417 91.368 77.625 L 91.319 78.833 90.076 78.833 L 88.833 78.833 88.833 80.083 L 88.833 81.333 86.533 81.333 C 83.838 81.333,83.833 81.336,83.833 82.783 L 83.833 83.833 72.583 83.833 L 61.333 83.833 61.333 85.152 L 61.333 86.471 60.667 86.583 C 59.360 86.804,58.839 87.878,58.835 90.362 L 58.833 91.640 58.341 91.748 C 57.617 91.907,57.050 92.423,56.825 93.128 C 56.716 93.470,56.560 93.821,56.480 93.908 C 56.249 94.158,56.297 98.230,56.533 98.467 C 56.660 98.593,57.299 98.667,58.279 98.667 L 59.825 98.667 60.579 99.421 C 61.135 99.978,61.333 100.305,61.333 100.671 L 61.333 101.167 73.750 101.167 L 86.167 101.167 86.167 99.917 L 86.167 98.667 89.917 98.667 L 93.667 98.667 93.667 97.421 L 93.667 96.176 96.125 96.129 L 98.583 96.083 98.632 94.875 L 98.681 93.667 99.924 93.667 L 101.167 93.667 101.167 92.417 L 101.167 91.167 102.417 91.167 L 103.667 91.167 103.667 89.917 L 103.667 88.667 104.917 88.667 L 106.167 88.667 106.167 87.417 L 106.167 86.167 107.417 86.167 L 108.667 86.167 108.667 84.917 L 108.667 83.667 109.917 83.667 L 111.167 83.667 111.167 82.424 L 111.167 81.181 112.375 81.132 L 113.583 81.083 113.629 78.632 L 113.675 76.181 114.879 76.132 L 116.083 76.083 116.128 72.395 L 116.173 68.707 117.095 68.631 C 118.713 68.497,118.583 69.491,118.583 57.202 L 118.583 46.417 117.375 46.368 L 116.167 46.319 116.167 42.576 L 116.167 38.833 114.917 38.833 L 113.667 38.833 113.667 36.333 L 113.667 33.833 112.430 33.833 L 111.192 33.833 111.138 31.591 C 111.075 28.991,111.062 28.967,109.676 28.866 L 108.680 28.794 108.632 27.605 L 108.583 26.417 107.382 26.368 L 106.181 26.319 106.132 25.118 L 106.083 23.917 104.882 23.868 L 103.681 23.819 103.632 22.618 L 103.583 21.417 101.125 21.371 L 98.667 21.324 98.667 20.079 L 98.667 18.833 95.111 18.833 C 93.156 18.833,91.506 18.883,91.444 18.944 " stroke="none" fill="#eb7523" fill-rule="evenodd"></path><path id="path2" d="" stroke="none" fill="#f0100c4" fill-rule="evenodd"></path><path id="path3" d="" stroke="none" fill="#f0100c4" fill-rule="evenodd"></path><path id="path4" d="" stroke="none" fill="#f0100c4" fill-rule="evenodd"></path></g></svg>